<svg xmlns="http://www.w3.org/2000/svg" xmlns:xlink="http://www.w3.org/1999/xlink" width="500" zoomAndPan="magnify" viewBox="0 0 375 374.999991" height="500" preserveAspectRatio="xMidYMid meet" version="1.0"><defs><g/><clipPath id="cec46ecba4"><path d="M 210 161 L 223 161 L 223 174 L 210 174 Z M 210 161 " clip-rule="nonzero"/></clipPath><clipPath id="6184032a7e"><path d="M 207.761719 163.394531 L 216.574219 155.25 L 228.792969 168.46875 L 219.980469 176.613281 Z M 207.761719 163.394531 " clip-rule="nonzero"/></clipPath><clipPath id="ff74275564"><path d="M 207.761719 163.394531 L 216.574219 155.25 L 228.792969 168.46875 L 219.980469 176.613281 Z M 207.761719 163.394531 " clip-rule="nonzero"/></clipPath><clipPath id="36c45bffad"><path d="M 216 155 L 229 155 L 229 169 L 216 169 Z M 216 155 " clip-rule="nonzero"/></clipPath><clipPath id="4eee5936d2"><path d="M 214.054688 157.578125 L 222.867188 149.433594 L 235.085938 162.652344 L 226.273438 170.796875 Z M 214.054688 157.578125 " clip-rule="nonzero"/></clipPath><clipPath id="6edfbacc44"><path d="M 214.054688 157.578125 L 222.867188 149.433594 L 235.085938 162.652344 L 226.273438 170.796875 Z M 214.054688 157.578125 " clip-rule="nonzero"/></clipPath></defs><rect x="-37.5" width="450" fill="#ffffff" y="-37.499999" height="449.999989" fill-opacity="1"/><rect x="-37.5" width="450" fill="#ffffff" y="-37.499999" height="449.999989" fill-opacity="1"/><g clip-path="url(#cec46ecba4)"><g clip-path="url(#6184032a7e)"><g clip-path="url(#ff74275564)"><path fill="#373643" d="M 222.621094 161.945312 L 211.996094 161.472656 C 209.945312 161.382812 209.597656 165.378906 212.027344 165.445312 L 218.640625 165.625 L 218.132812 172.277344 C 217.980469 174.304688 221.929688 174.515625 222.042969 172.457031 Z M 222.621094 161.945312 " fill-opacity="1" fill-rule="nonzero"/></g></g></g><g clip-path="url(#36c45bffad)"><g clip-path="url(#4eee5936d2)"><g clip-path="url(#6edfbacc44)"><path fill="#373643" d="M 228.914062 156.128906 L 218.289062 155.65625 C 216.238281 155.566406 215.890625 159.5625 218.320312 159.628906 L 224.933594 159.808594 L 224.425781 166.460938 C 224.273438 168.484375 228.222656 168.699219 228.335938 166.640625 Z M 228.914062 156.128906 " fill-opacity="1" fill-rule="nonzero"/></g></g></g><g fill="#373643" fill-opacity="1"><g transform="translate(152.63853, 206.781433)"><g><path d="M 9.28125 -9.5 L 9.28125 -2.734375 C 9.28125 -1.804688 8.945312 -1.117188 8.28125 -0.671875 C 7.625 -0.222656 6.921875 0 6.171875 0 C 5.378906 0 4.671875 -0.222656 4.046875 -0.671875 C 3.421875 -1.117188 3.109375 -1.789062 3.109375 -2.6875 L 3.109375 -31.390625 C 3.109375 -32.210938 3.410156 -32.878906 4.015625 -33.390625 C 4.628906 -33.910156 5.363281 -34.171875 6.21875 -34.171875 L 17.171875 -34.171875 C 20.140625 -34.171875 22.675781 -33.644531 24.78125 -32.59375 C 26.894531 -31.539062 28.503906 -30.070312 29.609375 -28.1875 C 30.722656 -26.3125 31.28125 -24.101562 31.28125 -21.5625 C 31.28125 -17.957031 30.023438 -15.046875 27.515625 -12.828125 C 25.015625 -10.609375 21.515625 -9.5 17.015625 -9.5 Z M 9.28125 -28.859375 L 9.28125 -14.8125 L 17.015625 -14.8125 C 19.660156 -14.8125 21.679688 -15.425781 23.078125 -16.65625 C 24.472656 -17.894531 25.171875 -19.53125 25.171875 -21.5625 C 25.171875 -23.78125 24.476562 -25.550781 23.09375 -26.875 C 21.71875 -28.195312 19.757812 -28.859375 17.21875 -28.859375 Z M 9.28125 -28.859375 "/></g></g></g><g fill="#373643" fill-opacity="1"><g transform="translate(184.941788, 206.781433)"><g><path d="M 17.546875 -34.71875 C 18.117188 -34.71875 18.65625 -34.597656 19.15625 -34.359375 C 19.65625 -34.128906 20.03125 -33.75 20.28125 -33.21875 L 35.46875 -3.4375 C 35.9375 -2.644531 36.0625 -1.953125 35.84375 -1.359375 C 35.625 -0.773438 35.210938 -0.316406 34.609375 0.015625 C 34.003906 0.359375 33.359375 0.53125 32.671875 0.53125 C 32.171875 0.53125 31.660156 0.394531 31.140625 0.125 C 30.628906 -0.132812 30.226562 -0.515625 29.9375 -1.015625 L 26.1875 -8.484375 L 8.90625 -8.484375 L 5.15625 -1.015625 C 4.90625 -0.441406 4.519531 -0.0390625 4 0.1875 C 3.476562 0.414062 2.96875 0.53125 2.46875 0.53125 C 1.863281 0.53125 1.265625 0.359375 0.671875 0.015625 C 0.078125 -0.316406 -0.347656 -0.773438 -0.609375 -1.359375 C -0.878906 -1.953125 -0.851562 -2.585938 -0.53125 -3.265625 L 14.75 -33.21875 C 15.039062 -33.820312 15.410156 -34.222656 15.859375 -34.421875 C 16.304688 -34.617188 16.867188 -34.71875 17.546875 -34.71875 Z M 17.546875 -25.640625 L 11.53125 -13.6875 L 23.5625 -13.6875 Z M 17.546875 -25.640625 "/></g></g></g><g fill="#373643" fill-opacity="1"><g transform="translate(140.850804, 225.777729)"><g><path d="M 8.5625 -8.5 C 8.5625 -7.457031 8.234375 -6.644531 7.578125 -6.0625 C 6.921875 -5.488281 5.953125 -5.203125 4.671875 -5.203125 L 2.140625 -5.203125 L 2.140625 0 L 1.390625 0 L 1.390625 -11.84375 L 4.671875 -11.84375 C 5.972656 -11.84375 6.945312 -11.539062 7.59375 -10.9375 C 8.238281 -10.34375 8.5625 -9.53125 8.5625 -8.5 Z M 4.671875 -5.875 C 6.753906 -5.875 7.796875 -6.75 7.796875 -8.5 C 7.796875 -9.363281 7.546875 -10.023438 7.046875 -10.484375 C 6.554688 -10.941406 5.765625 -11.171875 4.671875 -11.171875 L 2.140625 -11.171875 L 2.140625 -5.875 Z M 4.671875 -5.875 "/></g></g></g><g fill="#373643" fill-opacity="1"><g transform="translate(149.423046, 225.777729)"><g><path d="M 2.140625 -7.265625 C 2.367188 -7.941406 2.769531 -8.457031 3.34375 -8.8125 C 3.914062 -9.164062 4.644531 -9.34375 5.53125 -9.34375 L 5.53125 -8.5625 L 5.28125 -8.5625 C 4.382812 -8.5625 3.632812 -8.300781 3.03125 -7.78125 C 2.4375 -7.269531 2.140625 -6.4375 2.140625 -5.28125 L 2.140625 0 L 1.390625 0 L 1.390625 -9.15625 L 2.140625 -9.15625 Z M 2.140625 -7.265625 "/></g></g></g><g fill="#373643" fill-opacity="1"><g transform="translate(154.687786, 225.777729)"><g><path d="M 1.765625 -11.203125 C 1.585938 -11.203125 1.4375 -11.257812 1.3125 -11.375 C 1.1875 -11.5 1.125 -11.660156 1.125 -11.859375 C 1.125 -12.054688 1.1875 -12.210938 1.3125 -12.328125 C 1.4375 -12.453125 1.585938 -12.515625 1.765625 -12.515625 C 1.953125 -12.515625 2.101562 -12.453125 2.21875 -12.328125 C 2.34375 -12.210938 2.40625 -12.054688 2.40625 -11.859375 C 2.40625 -11.660156 2.34375 -11.5 2.21875 -11.375 C 2.101562 -11.257812 1.953125 -11.203125 1.765625 -11.203125 Z M 2.140625 -9.15625 L 2.140625 0 L 1.390625 0 L 1.390625 -9.15625 Z M 2.140625 -9.15625 "/></g></g></g><g fill="#373643" fill-opacity="1"><g transform="translate(157.590019, 225.777729)"><g><path d="M 4.4375 0.140625 C 3.414062 0.140625 2.582031 -0.0820312 1.9375 -0.53125 C 1.289062 -0.988281 0.925781 -1.632812 0.84375 -2.46875 L 1.625 -2.46875 C 1.675781 -1.863281 1.945312 -1.382812 2.4375 -1.03125 C 2.925781 -0.6875 3.59375 -0.515625 4.4375 -0.515625 C 5.132812 -0.515625 5.6875 -0.691406 6.09375 -1.046875 C 6.507812 -1.410156 6.71875 -1.847656 6.71875 -2.359375 C 6.71875 -2.722656 6.609375 -3.019531 6.390625 -3.25 C 6.171875 -3.476562 5.894531 -3.65625 5.5625 -3.78125 C 5.238281 -3.90625 4.796875 -4.039062 4.234375 -4.1875 C 3.554688 -4.363281 3.007812 -4.539062 2.59375 -4.71875 C 2.175781 -4.894531 1.820312 -5.15625 1.53125 -5.5 C 1.238281 -5.851562 1.09375 -6.320312 1.09375 -6.90625 C 1.09375 -7.332031 1.222656 -7.726562 1.484375 -8.09375 C 1.742188 -8.457031 2.101562 -8.742188 2.5625 -8.953125 C 3.019531 -9.171875 3.546875 -9.28125 4.140625 -9.28125 C 5.085938 -9.28125 5.859375 -9.039062 6.453125 -8.5625 C 7.046875 -8.082031 7.363281 -7.421875 7.40625 -6.578125 L 6.65625 -6.578125 C 6.613281 -7.191406 6.375 -7.6875 5.9375 -8.0625 C 5.5 -8.445312 4.894531 -8.640625 4.125 -8.640625 C 3.46875 -8.640625 2.925781 -8.46875 2.5 -8.125 C 2.070312 -7.789062 1.859375 -7.382812 1.859375 -6.90625 C 1.859375 -6.476562 1.976562 -6.128906 2.21875 -5.859375 C 2.457031 -5.597656 2.753906 -5.394531 3.109375 -5.25 C 3.460938 -5.113281 3.929688 -4.96875 4.515625 -4.8125 C 5.160156 -4.644531 5.675781 -4.476562 6.0625 -4.3125 C 6.457031 -4.144531 6.785156 -3.90625 7.046875 -3.59375 C 7.316406 -3.289062 7.453125 -2.878906 7.453125 -2.359375 C 7.453125 -1.890625 7.320312 -1.460938 7.0625 -1.078125 C 6.8125 -0.691406 6.453125 -0.390625 5.984375 -0.171875 C 5.523438 0.0351562 5.007812 0.140625 4.4375 0.140625 Z M 4.4375 0.140625 "/></g></g></g><g fill="#373643" fill-opacity="1"><g transform="translate(165.335391, 225.777729)"><g><path d="M 0.90625 -4.59375 C 0.90625 -5.550781 1.09375 -6.382812 1.46875 -7.09375 C 1.851562 -7.800781 2.378906 -8.34375 3.046875 -8.71875 C 3.710938 -9.09375 4.476562 -9.28125 5.34375 -9.28125 C 6.5 -9.28125 7.441406 -8.992188 8.171875 -8.421875 C 8.910156 -7.847656 9.367188 -7.078125 9.546875 -6.109375 L 8.765625 -6.109375 C 8.609375 -6.898438 8.222656 -7.519531 7.609375 -7.96875 C 7.003906 -8.414062 6.25 -8.640625 5.34375 -8.640625 C 4.675781 -8.640625 4.066406 -8.488281 3.515625 -8.1875 C 2.960938 -7.894531 2.519531 -7.441406 2.1875 -6.828125 C 1.851562 -6.210938 1.6875 -5.46875 1.6875 -4.59375 C 1.6875 -3.695312 1.851562 -2.945312 2.1875 -2.34375 C 2.519531 -1.738281 2.960938 -1.28125 3.515625 -0.96875 C 4.066406 -0.664062 4.675781 -0.515625 5.34375 -0.515625 C 6.25 -0.515625 7.003906 -0.738281 7.609375 -1.1875 C 8.222656 -1.644531 8.609375 -2.265625 8.765625 -3.046875 L 9.546875 -3.046875 C 9.367188 -2.097656 8.90625 -1.328125 8.15625 -0.734375 C 7.414062 -0.148438 6.476562 0.140625 5.34375 0.140625 C 4.476562 0.140625 3.710938 -0.0507812 3.046875 -0.4375 C 2.378906 -0.820312 1.851562 -1.367188 1.46875 -2.078125 C 1.09375 -2.796875 0.90625 -3.632812 0.90625 -4.59375 Z M 0.90625 -4.59375 "/></g></g></g><g fill="#373643" fill-opacity="1"><g transform="translate(175.173258, 225.777729)"><g><path d="M 1.765625 -11.203125 C 1.585938 -11.203125 1.4375 -11.257812 1.3125 -11.375 C 1.1875 -11.5 1.125 -11.660156 1.125 -11.859375 C 1.125 -12.054688 1.1875 -12.210938 1.3125 -12.328125 C 1.4375 -12.453125 1.585938 -12.515625 1.765625 -12.515625 C 1.953125 -12.515625 2.101562 -12.453125 2.21875 -12.328125 C 2.34375 -12.210938 2.40625 -12.054688 2.40625 -11.859375 C 2.40625 -11.660156 2.34375 -11.5 2.21875 -11.375 C 2.101562 -11.257812 1.953125 -11.203125 1.765625 -11.203125 Z M 2.140625 -9.15625 L 2.140625 0 L 1.390625 0 L 1.390625 -9.15625 Z M 2.140625 -9.15625 "/></g></g></g><g fill="#373643" fill-opacity="1"><g transform="translate(178.075491, 225.777729)"><g><path d="M 2.140625 -12.484375 L 2.140625 0 L 1.390625 0 L 1.390625 -12.484375 Z M 2.140625 -12.484375 "/></g></g></g><g fill="#373643" fill-opacity="1"><g transform="translate(180.977724, 225.777729)"><g><path d="M 2.140625 -12.484375 L 2.140625 0 L 1.390625 0 L 1.390625 -12.484375 Z M 2.140625 -12.484375 "/></g></g></g><g fill="#373643" fill-opacity="1"><g transform="translate(183.879957, 225.777729)"><g><path d="M 0.90625 -4.59375 C 0.90625 -5.53125 1.09375 -6.351562 1.46875 -7.0625 C 1.851562 -7.78125 2.378906 -8.328125 3.046875 -8.703125 C 3.710938 -9.085938 4.472656 -9.28125 5.328125 -9.28125 C 6.296875 -9.28125 7.117188 -9.039062 7.796875 -8.5625 C 8.472656 -8.09375 8.945312 -7.492188 9.21875 -6.765625 L 9.21875 -9.15625 L 9.96875 -9.15625 L 9.96875 0 L 9.21875 0 L 9.21875 -2.40625 C 8.945312 -1.664062 8.46875 -1.054688 7.78125 -0.578125 C 7.101562 -0.0976562 6.285156 0.140625 5.328125 0.140625 C 4.472656 0.140625 3.710938 -0.0507812 3.046875 -0.4375 C 2.378906 -0.832031 1.851562 -1.382812 1.46875 -2.09375 C 1.09375 -2.8125 0.90625 -3.644531 0.90625 -4.59375 Z M 9.21875 -4.59375 C 9.21875 -5.382812 9.050781 -6.085938 8.71875 -6.703125 C 8.382812 -7.316406 7.929688 -7.789062 7.359375 -8.125 C 6.785156 -8.457031 6.144531 -8.625 5.4375 -8.625 C 4.6875 -8.625 4.03125 -8.460938 3.46875 -8.140625 C 2.90625 -7.816406 2.46875 -7.351562 2.15625 -6.75 C 1.84375 -6.144531 1.6875 -5.425781 1.6875 -4.59375 C 1.6875 -3.757812 1.84375 -3.035156 2.15625 -2.421875 C 2.46875 -1.816406 2.910156 -1.351562 3.484375 -1.03125 C 4.054688 -0.707031 4.707031 -0.546875 5.4375 -0.546875 C 6.144531 -0.546875 6.785156 -0.707031 7.359375 -1.03125 C 7.941406 -1.363281 8.394531 -1.835938 8.71875 -2.453125 C 9.050781 -3.066406 9.21875 -3.78125 9.21875 -4.59375 Z M 9.21875 -4.59375 "/></g></g></g><g fill="#373643" fill-opacity="1"><g transform="translate(194.595334, 225.777729)"><g/></g></g><g fill="#373643" fill-opacity="1"><g transform="translate(198.712575, 225.777729)"><g><path d="M 8.09375 -3.03125 L 2.484375 -3.03125 L 1.34375 0 L 0.515625 0 L 4.875 -11.578125 L 5.71875 -11.578125 L 10.0625 0 L 9.234375 0 Z M 7.859375 -3.671875 L 5.296875 -10.578125 L 2.71875 -3.671875 Z M 7.859375 -3.671875 "/></g></g></g><g fill="#373643" fill-opacity="1"><g transform="translate(208.651699, 225.777729)"><g><path d="M 1.890625 -11.203125 C 1.710938 -11.203125 1.5625 -11.257812 1.4375 -11.375 C 1.3125 -11.5 1.25 -11.660156 1.25 -11.859375 C 1.25 -12.054688 1.3125 -12.210938 1.4375 -12.328125 C 1.5625 -12.453125 1.710938 -12.515625 1.890625 -12.515625 C 2.066406 -12.515625 2.21875 -12.453125 2.34375 -12.328125 C 2.476562 -12.210938 2.546875 -12.054688 2.546875 -11.859375 C 2.546875 -11.671875 2.476562 -11.515625 2.34375 -11.390625 C 2.21875 -11.265625 2.066406 -11.203125 1.890625 -11.203125 Z M 2.28125 2.359375 C 2.28125 3.015625 2.117188 3.503906 1.796875 3.828125 C 1.472656 4.148438 0.960938 4.3125 0.265625 4.3125 L -0.4375 4.3125 L -0.4375 3.640625 L 0.1875 3.640625 C 0.65625 3.640625 0.992188 3.539062 1.203125 3.34375 C 1.410156 3.144531 1.515625 2.796875 1.515625 2.296875 L 1.515625 -9.15625 L 2.28125 -9.15625 Z M 2.28125 2.359375 "/></g></g></g><g fill="#373643" fill-opacity="1"><g transform="translate(211.672058, 225.777729)"><g><path d="M 0.90625 -4.59375 C 0.90625 -5.53125 1.09375 -6.351562 1.46875 -7.0625 C 1.851562 -7.78125 2.378906 -8.328125 3.046875 -8.703125 C 3.710938 -9.085938 4.472656 -9.28125 5.328125 -9.28125 C 6.296875 -9.28125 7.117188 -9.039062 7.796875 -8.5625 C 8.472656 -8.09375 8.945312 -7.492188 9.21875 -6.765625 L 9.21875 -9.15625 L 9.96875 -9.15625 L 9.96875 0 L 9.21875 0 L 9.21875 -2.40625 C 8.945312 -1.664062 8.46875 -1.054688 7.78125 -0.578125 C 7.101562 -0.0976562 6.285156 0.140625 5.328125 0.140625 C 4.472656 0.140625 3.710938 -0.0507812 3.046875 -0.4375 C 2.378906 -0.832031 1.851562 -1.382812 1.46875 -2.09375 C 1.09375 -2.8125 0.90625 -3.644531 0.90625 -4.59375 Z M 9.21875 -4.59375 C 9.21875 -5.382812 9.050781 -6.085938 8.71875 -6.703125 C 8.382812 -7.316406 7.929688 -7.789062 7.359375 -8.125 C 6.785156 -8.457031 6.144531 -8.625 5.4375 -8.625 C 4.6875 -8.625 4.03125 -8.460938 3.46875 -8.140625 C 2.90625 -7.816406 2.46875 -7.351562 2.15625 -6.75 C 1.84375 -6.144531 1.6875 -5.425781 1.6875 -4.59375 C 1.6875 -3.757812 1.84375 -3.035156 2.15625 -2.421875 C 2.46875 -1.816406 2.910156 -1.351562 3.484375 -1.03125 C 4.054688 -0.707031 4.707031 -0.546875 5.4375 -0.546875 C 6.144531 -0.546875 6.785156 -0.707031 7.359375 -1.03125 C 7.941406 -1.363281 8.394531 -1.835938 8.71875 -2.453125 C 9.050781 -3.066406 9.21875 -3.78125 9.21875 -4.59375 Z M 9.21875 -4.59375 "/></g></g></g><g fill="#373643" fill-opacity="1"><g transform="translate(222.387435, 225.777729)"><g><path d="M 8.53125 -9.15625 L 3.203125 4.296875 L 2.4375 4.296875 L 4.140625 0 L 0.28125 -9.15625 L 1.109375 -9.15625 L 4.5625 -0.84375 L 7.765625 -9.15625 Z M 8.53125 -9.15625 "/></g></g></g><g fill="#373643" fill-opacity="1"><g transform="translate(230.588431, 225.777729)"><g><path d="M 1.765625 -11.203125 C 1.585938 -11.203125 1.4375 -11.257812 1.3125 -11.375 C 1.1875 -11.5 1.125 -11.660156 1.125 -11.859375 C 1.125 -12.054688 1.1875 -12.210938 1.3125 -12.328125 C 1.4375 -12.453125 1.585938 -12.515625 1.765625 -12.515625 C 1.953125 -12.515625 2.101562 -12.453125 2.21875 -12.328125 C 2.34375 -12.210938 2.40625 -12.054688 2.40625 -11.859375 C 2.40625 -11.660156 2.34375 -11.5 2.21875 -11.375 C 2.101562 -11.257812 1.953125 -11.203125 1.765625 -11.203125 Z M 2.140625 -9.15625 L 2.140625 0 L 1.390625 0 L 1.390625 -9.15625 Z M 2.140625 -9.15625 "/></g></g></g></svg>